<!DOCTYPE svg PUBLIC "-//W3C//DTD SVG 1.1//EN" "http://www.w3.org/Graphics/SVG/1.1/DTD/svg11.dtd">
<!-- Uploaded to: SVG Repo, www.svgrepo.com, Transformed by: SVG Repo Mixer Tools -->
<svg width="211px" height="211px" viewBox="-6.4 -6.4 76.80 76.80" xmlns="http://www.w3.org/2000/svg" xmlns:xlink="http://www.w3.org/1999/xlink" aria-hidden="true" role="img" class="iconify iconify--emojione" preserveAspectRatio="xMidYMid meet" fill="#000000" stroke="#000000" stroke-width="0.00064" transform="matrix(-1, 0, 0, 1, 0, 0)rotate(0)">
<g id="SVGRepo_bgCarrier" stroke-width="0" transform="translate(0,0), scale(1)">
<path transform="translate(-6.4, -6.4), scale(4.8)" fill="#000000" d="M9.166.33a2.25 2.25 0 00-2.332 0l-5.25 3.182A2.25 2.25 0 00.5 5.436v5.128a2.25 2.25 0 001.084 1.924l5.25 3.182a2.25 2.25 0 002.332 0l5.25-3.182a2.25 2.25 0 001.084-1.924V5.436a2.25 2.25 0 00-1.084-1.924L9.166.33z" strokewidth="0"/>
</g>
<g id="SVGRepo_tracerCarrier" stroke-linecap="round" stroke-linejoin="round" stroke="#f7f7f7" stroke-width="4.608">
<circle cx="32" cy="32" r="30" fill="#000000"/>
<path d="M37.3 17.5H46v29h-5.7V22.1l-5.5 24.4H29l-5.5-24.4v24.4H18v-29h8.8l5.3 22.8l5.2-22.8" fill="#ffffff"/>
</g>
<g id="SVGRepo_iconCarrier">
<circle cx="32" cy="32" r="30" fill="#000000"/>
<path d="M37.3 17.5H46v29h-5.7V22.1l-5.5 24.4H29l-5.5-24.4v24.4H18v-29h8.8l5.3 22.8l5.2-22.8" fill="#ffffff"/>
</g>
</svg>